<?xml version="1.0" standalone="no"?>
<!DOCTYPE svg PUBLIC "-//W3C//DTD SVG 20010904//EN"
 "http://www.w3.org/TR/2001/REC-SVG-20010904/DTD/svg10.dtd">
<svg version="1.0" xmlns="http://www.w3.org/2000/svg"
 width="500.000000pt" height="500.000000pt" viewBox="0 0 500.000000 500.000000"
 preserveAspectRatio="xMidYMid meet">
<metadata>
Created by potrace 1.14, written by Peter Selinger 2001-2017
</metadata>
<g transform="translate(0.000000,500.000000) scale(0.100000,-0.100000)"
fill="#000000" stroke="none">
<path d="M1700 4856 c-91 -19 -193 -60 -275 -108 -136 -81 -279 -252 -336
-405 l-24 -63 -42 0 c-52 0 -67 -15 -105 -100 -75 -164 -119 -372 -105 -490 5
-40 2 -51 -15 -66 -31 -29 -65 -103 -77 -169 -15 -83 -13 -364 4 -534 l15
-144 -25 -97 c-53 -203 -52 -347 4 -465 34 -72 80 -121 161 -171 58 -36 63
-42 126 -163 69 -134 269 -433 373 -558 34 -41 60 -77 58 -79 -2 -3 -44 -16
-93 -29 -148 -39 -351 -114 -479 -175 -386 -187 -627 -449 -721 -787 -15 -56
-16 -64 -1 -86 l15 -24 1089 -6 c598 -4 1649 -10 2334 -14 l1246 -6 17 25 c16
24 15 30 -15 124 -41 131 -87 229 -154 329 -59 90 -189 219 -279 279 -195 130
-489 237 -839 306 l-58 12 74 77 c113 118 184 232 273 438 25 59 53 115 61
124 8 9 49 29 91 44 181 64 289 148 366 288 97 174 110 299 45 432 -25 52 -58
95 -127 165 l-94 95 -3 215 c-2 148 -9 264 -24 373 -27 200 -28 187 12 187 40
0 77 24 77 50 0 17 -92 417 -119 517 -14 52 -33 63 -109 63 -56 0 -61 2 -79
31 -33 51 -312 307 -399 364 -44 30 -111 67 -150 84 -156 66 -472 111 -638 90
-101 -13 -172 -30 -309 -76 -105 -36 -109 -36 -135 -20 -60 39 -142 76 -222
102 -104 33 -284 43 -390 21z m314 -111 c198 -42 387 -191 478 -378 52 -106
69 -169 75 -283 7 -130 -13 -226 -74 -354 -39 -80 -59 -108 -132 -181 -95 -95
-171 -142 -296 -185 -70 -24 -96 -28 -205 -28 -104 -1 -138 3 -200 23 -129 40
-206 87 -306 186 -78 76 -98 104 -138 185 -177 362 -32 785 330 961 44 21 109
45 145 53 85 19 237 19 323 1z m1091 -41 c156 -27 337 -98 415 -163 45 -38
298 -276 295 -279 -1 -1 -264 1 -583 4 l-581 7 -21 62 c-24 74 -87 182 -142
244 -21 24 -38 47 -38 52 0 9 127 52 215 73 83 20 326 20 440 0z m-1940 -1111
c16 -26 62 -81 102 -122 40 -42 69 -79 64 -84 -5 -5 -80 -48 -167 -97 -88 -49
-167 -94 -177 -102 -21 -15 -21 -16 -11 -156 7 -96 6 -104 -15 -126 -22 -23
-109 -71 -117 -64 -2 3 -9 73 -15 158 -12 171 -7 426 10 481 6 19 36 63 67 97
l56 62 86 0 87 0 30 -47z m2854 32 c19 -20 69 -603 57 -669 l-7 -39 -62 7
c-173 18 -222 19 -234 4 -7 -8 -26 -54 -44 -104 -65 -187 -147 -334 -203 -364
-44 -23 -94 11 -123 85 -15 39 -16 184 -2 260 11 61 0 105 -27 105 -7 0 -53
20 -102 46 -107 54 -203 139 -298 262 -99 127 -109 132 -153 80 -14 -17 -47
-53 -73 -80 -40 -39 -54 -48 -83 -48 -69 0 -173 75 -252 182 l-35 49 68 72
c38 40 83 92 100 117 l30 45 719 -3 c395 -1 721 -5 724 -7z m-1689 -346 c95
-131 204 -208 304 -216 81 -7 123 7 184 62 l49 44 54 -65 c87 -107 204 -202
318 -259 l45 -23 1 -139 c1 -149 10 -191 59 -262 50 -72 141 -100 219 -68 80
34 202 220 259 397 l23 72 105 -7 c61 -4 118 -14 135 -23 17 -8 67 -52 112
-97 96 -95 143 -181 145 -262 2 -60 -38 -168 -91 -250 -108 -166 -243 -214
-458 -163 -107 26 -126 22 -131 -27 -4 -38 13 -52 87 -72 32 -9 59 -19 59 -23
2 -28 -154 -349 -209 -430 -58 -85 -100 -130 -202 -214 -387 -324 -785 -423
-1232 -307 -299 77 -517 216 -709 452 -113 138 -366 520 -366 552 0 3 24 2 53
-3 48 -8 214 -2 243 9 7 3 21 -11 32 -34 44 -85 137 -142 231 -143 41 0 71 9
135 38 129 61 166 88 166 120 0 33 -16 52 -44 52 -12 0 -71 -25 -131 -56 -106
-54 -112 -56 -151 -45 -50 13 -89 43 -109 81 -13 24 -12 38 9 131 13 57 32
124 41 149 9 25 25 70 37 100 16 43 21 88 25 206 6 166 0 236 -23 259 -21 20
-50 19 -73 -4 -15 -15 -17 -29 -13 -93 l4 -75 -167 -6 c-93 -4 -252 -7 -356
-7 l-187 0 10 38 c9 35 16 41 89 77 98 48 154 94 170 142 7 22 10 72 7 132
l-5 97 186 105 185 106 61 -28 c219 -99 472 -97 687 5 40 19 75 35 78 35 3 1
25 -26 50 -60z m-813 -812 c-3 -35 -19 -97 -35 -138 -16 -41 -40 -115 -53
-166 l-24 -92 -48 -11 c-154 -33 -363 10 -473 98 -67 53 -109 174 -102 297 l3
60 130 3 130 3 -3 -56 c-4 -53 -2 -57 35 -94 90 -91 239 -71 288 39 15 34 17
48 8 81 l-10 39 80 0 80 0 -6 -63z m74 -1389 c72 -50 88 -65 84 -82 -3 -12
-25 -140 -50 -286 -24 -146 -53 -310 -62 -365 l-18 -100 -170 -3 c-93 -2 -383
0 -642 3 -408 6 -473 9 -473 22 0 8 15 50 34 93 126 292 400 514 831 675 104
38 327 103 358 104 10 1 59 -27 108 -61z m2049 -25 c298 -68 546 -164 705
-274 89 -61 216 -193 263 -272 35 -58 107 -217 117 -260 l7 -25 -854 5 c-469
3 -855 7 -857 9 -5 4 48 610 55 635 2 9 77 64 167 123 187 123 144 117 397 59z
m-1772 -118 c39 -19 106 -46 149 -60 43 -14 84 -28 91 -30 9 -3 -8 -31 -50
-82 -35 -43 -65 -80 -68 -83 -3 -3 -34 -40 -69 -82 -35 -43 -65 -78 -66 -78
-1 0 -30 32 -65 70 l-62 71 26 147 c14 81 26 151 26 155 0 13 17 8 88 -28z
m1088 -137 c-3 -35 -9 -100 -12 -145 l-7 -82 -46 -17 c-25 -9 -91 -34 -147
-56 -91 -35 -124 -44 -124 -35 0 2 -20 71 -45 153 -25 82 -45 154 -45 159 0 6
47 16 108 23 59 7 148 23 197 36 135 35 128 37 121 -36z m-886 -347 c16 -41
30 -81 30 -89 0 -9 -14 -40 -32 -69 l-32 -53 -188 0 c-144 0 -188 3 -188 13 0
6 9 66 20 132 11 66 20 123 20 127 0 3 30 -25 67 -63 91 -94 102 -94 189 12
37 44 70 77 75 72 4 -4 22 -41 39 -82z m445 -36 c12 -46 25 -71 41 -82 23 -14
30 -13 117 17 50 18 125 46 165 62 40 15 77 28 82 28 5 0 7 -15 5 -32 -3 -18
-7 -63 -11 -100 l-6 -68 -274 0 -274 0 0 46 c0 41 7 54 61 125 34 43 65 77 69
74 4 -2 15 -34 25 -70z"/>
<path d="M1781 4266 c-48 -17 -108 -71 -132 -118 -17 -33 -20 -55 -17 -113 4
-85 30 -133 98 -180 39 -27 51 -30 125 -30 72 0 86 3 124 28 23 15 55 48 71
73 61 96 49 195 -34 280 -69 71 -149 91 -235 60z"/>
<path d="M1963 2798 c-38 -48 -83 -242 -83 -355 0 -376 311 -545 843 -457 130
21 236 65 301 125 101 92 126 188 101 382 -9 67 -19 147 -21 177 -8 85 -12 98
-37 106 -51 18 -77 -8 -77 -78 l0 -48 -485 0 c-267 0 -485 2 -485 5 0 3 7 22
15 42 18 43 19 85 3 101 -16 16 -63 15 -75 0z m402 -298 c-14 -102 59 -184
165 -184 69 0 112 22 146 74 24 36 26 47 21 100 l-5 60 158 0 c139 0 159 -2
164 -17 4 -9 9 -58 13 -108 9 -147 -31 -227 -143 -283 -95 -48 -306 -78 -474
-69 -210 12 -324 69 -388 191 -22 43 -27 68 -30 153 -2 57 -2 110 2 118 4 13
34 15 192 15 l186 0 -7 -50z"/>
<path d="M2381 1816 c-6 -7 -24 -32 -39 -55 -110 -163 -288 -247 -451 -212
-36 8 -58 8 -71 1 -25 -13 -36 -56 -20 -75 30 -36 188 -49 292 -25 125 29 244
114 326 233 54 78 59 95 42 128 -13 22 -62 26 -79 5z"/>
<path d="M3520 873 c-32 -12 -71 -46 -88 -76 -13 -25 -18 -65 -22 -177 l-5
-145 -70 -3 c-56 -2 -73 -7 -87 -23 -18 -22 -14 -47 10 -66 22 -18 892 -19
910 -1 15 15 15 61 0 76 -7 7 -42 12 -85 12 l-73 0 0 140 c0 121 -3 146 -20
180 -47 93 -171 120 -250 53 l-31 -26 -22 20 c-12 11 -32 26 -44 32 -22 11
-96 14 -123 4z m94 -119 c13 -12 16 -41 16 -145 l0 -129 -55 0 -55 0 0 127 c0
104 3 130 17 145 20 22 56 23 77 2z m268 -1 c16 -14 18 -33 18 -145 l0 -128
-55 0 -55 0 0 129 c0 104 3 133 16 145 20 21 53 20 76 -1z"/>
</g>
</svg>
